<svg xmlns="http://www.w3.org/2000/svg" x="0px" y="0px" width="100" height="100" viewBox="0 0 48 48">
<path fill="#9fa8da" d="M20.243,47.87c-0.174,0-0.349-0.031-0.519-0.096c-0.563-0.215-0.936-0.755-0.936-1.358v-4.453	c-2.09-0.626-3.788-1.517-5.057-2.658c-2.523-2.544-3.669-6.108-3.669-11.275v-2.908c0-5.167,1.146-8.731,3.607-11.215	c4.239-3.814,11.835-3.814,14.331-3.814s10.091,0,14.269,3.756c2.522,2.541,3.668,6.106,3.668,11.273l0.001,2.908	c0,5.167-1.146,8.731-3.607,11.215c-4.24,3.814-11.836,3.814-14.332,3.814c-0.596,0-1.526,0-2.649-0.057	c-1.175,1.315-4.023,4.384-4.023,4.384C21.046,47.699,20.649,47.87,20.243,47.87z"></path><path fill="#18193f" d="M33.451,28.854c-1.111-0.936-1.624-1.219-3.158-2.14C29.654,26.331,28.68,26,28.169,26	c-0.349,0-0.767,0.267-1.023,0.523C26.49,27.179,26.275,28,25.125,28c-1.125,0-3.09-1.145-4.5-2.625C19.145,23.965,18,22,18,20.875	c0-1.15,0.806-1.38,1.462-2.037C19.718,18.583,20,18.165,20,17.816c0-0.511-0.331-1.47-0.714-2.109	c-0.921-1.535-1.203-2.048-2.14-3.158c-0.317-0.376-0.678-0.548-1.056-0.549c-0.639-0.001-1.478,0.316-2.046,0.739	c-0.854,0.637-1.747,1.504-1.986,2.584c-0.032,0.147-0.051,0.295-0.057,0.443c-0.046,1.125,0.396,2.267,0.873,3.234	c1.123,2.279,2.609,4.485,4.226,6.455c0.517,0.63,1.08,1.216,1.663,1.782c0.566,0.582,1.152,1.145,1.782,1.663	c1.97,1.617,4.176,3.103,6.455,4.226c0.958,0.472,2.086,0.906,3.2,0.874c0.159-0.005,0.318-0.023,0.477-0.058	c1.08-0.238,1.947-1.132,2.584-1.986c0.423-0.568,0.74-1.406,0.739-2.046C33.999,29.532,33.827,29.171,33.451,28.854z"></path><path fill="#18193f" d="M34,24c-0.552,0-1-0.448-1-1v-1c0-4.962-4.038-9-9-9c-0.552,0-1-0.448-1-1s0.448-1,1-1	c6.065,0,11,4.935,11,11v1C35,23.552,34.552,24,34,24z"></path><path fill="#18193f" d="M27.858,22c-0.444,0-0.85-0.298-0.967-0.748c-0.274-1.051-1.094-1.872-2.141-2.142	c-0.535-0.139-0.856-0.684-0.718-1.219c0.138-0.534,0.682-0.855,1.219-0.718c1.748,0.453,3.118,1.822,3.575,3.574	c0.139,0.535-0.181,1.08-0.715,1.22C28.026,21.989,27.941,22,27.858,22z"></path><path fill="#18193f" d="M31,23c-0.552,0-1-0.448-1-1c0-3.188-2.494-5.818-5.678-5.986c-0.552-0.029-0.975-0.5-0.946-1.051	c0.029-0.552,0.508-0.976,1.051-0.946C28.674,14.241,32,17.748,32,22C32,22.552,31.552,23,31,23z"></path><path fill="none" stroke="#18193f" stroke-linecap="round" stroke-linejoin="round" stroke-width="3" d="M21.209,5.561	C22.378,5.499,23.355,5.499,24,5.499c2.574,0,10.407,0,14.716,3.874c2.601,2.621,3.783,6.297,3.783,11.627l0.001,2.999	c0,5.329-1.182,9.005-3.72,11.567c-1.158,1.042-2.559,1.808-4.04,2.371"></path><path fill="none" stroke="#18193f" stroke-linecap="round" stroke-linejoin="round" stroke-width="3" d="M28.008,39.354	c-1.706,0.146-3.15,0.146-4.009,0.146c-0.615,0-1.574,0-2.732-0.059c-1.212,1.356-4.149,4.521-4.149,4.521	c-0.29,0.324-0.7,0.5-1.118,0.5c-0.179,0-0.36-0.032-0.535-0.099c-0.581-0.222-0.965-0.779-0.965-1.401v-4.593	c-2.156-0.646-3.907-1.565-5.216-2.741C6.682,33.004,5.5,29.328,5.5,23.999V21c0-5.329,1.182-9.005,3.72-11.567	c0.823-0.74,1.768-1.341,2.778-1.829"></path>
</svg>